<svg width="31" height="31" viewBox="0 0 31 31" fill="none" xmlns="http://www.w3.org/2000/svg">
<path d="M30.9152 9.11408C30.8426 7.46693 30.5762 6.33453 30.1946 5.35329C29.801 4.31173 29.1954 3.37922 28.402 2.60402C27.6268 1.81676 26.6882 1.20502 25.6587 0.817542C24.6717 0.435975 23.5453 0.169612 21.8981 0.0969885C20.2387 0.0182149 19.7118 0 15.503 0C11.2942 0 10.7674 0.0182149 9.11408 0.090838C7.46693 0.163461 6.33453 0.430061 5.35353 0.811392C4.31173 1.20502 3.37922 1.81061 2.60402 2.60402C1.81676 3.37922 1.20526 4.31788 0.817542 5.34738C0.435975 6.33453 0.169612 7.46078 0.0969884 9.10793C0.0182149 10.7674 0 11.2942 0 15.503C0 19.7119 0.0182149 20.2387 0.090838 21.892C0.163461 23.5391 0.430061 24.6715 0.811628 25.6528C1.20526 26.6943 1.81676 27.6268 2.60402 28.402C3.37922 29.1893 4.31788 29.801 5.34738 30.1885C6.33453 30.5701 7.46078 30.8364 9.10816 30.9091C10.7612 30.9819 11.2883 30.9999 15.4971 30.9999C19.7059 30.9999 20.2327 30.9819 21.886 30.9091C23.5332 30.8364 24.6656 30.5701 25.6466 30.1885C27.73 29.383 29.3771 27.7359 30.1826 25.6528C30.5639 24.6656 30.8305 23.5391 30.9031 21.892C30.9758 20.2387 30.994 19.7119 30.994 15.503C30.994 11.2942 30.9878 10.7674 30.9152 9.11408ZM28.1236 21.7709C28.0569 23.2848 27.8026 24.1024 27.5906 24.6474C27.0697 25.9979 25.9979 27.0697 24.6474 27.5906C24.1023 27.8026 23.2789 28.0569 21.7708 28.1234C20.1358 28.1962 19.6454 28.2142 15.5092 28.2142C11.373 28.2142 10.8764 28.1962 9.24726 28.1234C7.73329 28.0569 6.91575 27.8026 6.37072 27.5906C5.69866 27.3423 5.08693 26.9486 4.59039 26.4339C4.07564 25.9312 3.68201 25.3256 3.43363 24.6535C3.22167 24.1085 2.96737 23.2848 2.9009 21.777C2.82804 20.1419 2.81006 19.6513 2.81006 15.5151C2.81006 11.3789 2.82804 10.8824 2.9009 9.25342C2.96737 7.73945 3.22167 6.92191 3.43363 6.37688C3.68201 5.70458 4.07564 5.09308 4.59654 4.59631C5.09899 4.08156 5.70458 3.68793 6.37687 3.43978C6.9219 3.22783 7.74559 2.97353 9.25341 2.90682C10.8885 2.83419 11.3791 2.81598 15.5151 2.81598C19.6574 2.81598 20.1478 2.83419 21.777 2.90682C23.291 2.97353 24.1085 3.22783 24.6535 3.43978C25.3256 3.68793 25.9373 4.08156 26.4339 4.59631C26.9486 5.099 27.3422 5.70458 27.5906 6.37688C27.8026 6.92191 28.0569 7.74536 28.1236 9.25342C28.1962 10.8885 28.2144 11.3789 28.2144 15.5151C28.2144 19.6513 28.1962 20.1358 28.1236 21.7709Z" fill="#8c47ad"/>
<path d="M15.502 7.53906C11.1056 7.53906 7.53857 11.1059 7.53857 15.5025C7.53857 19.8992 11.1056 23.466 15.502 23.466C19.8987 23.466 23.4655 19.8992 23.4655 15.5025C23.4655 11.1059 19.8987 7.53906 15.502 7.53906ZM15.502 20.6682C12.6499 20.6682 10.3363 18.3549 10.3363 15.5025C10.3363 12.6501 12.6499 10.3368 15.502 10.3368C18.3545 10.3368 20.6677 12.6501 20.6677 15.5025C20.6677 18.3549 18.3545 20.6682 15.502 20.6682Z" fill="#8c47ad"/>
<path d="M25.6397 7.22434C25.6397 8.251 24.8073 9.08345 23.7804 9.08345C22.7537 9.08345 21.9213 8.251 21.9213 7.22434C21.9213 6.19745 22.7537 5.36523 23.7804 5.36523C24.8073 5.36523 25.6397 6.19745 25.6397 7.22434Z" fill="#8c47ad"/>
</svg>
