<svg id="svg" version="1.1" xmlns="http://www.w3.org/2000/svg" xmlns:xlink="http://www.w3.org/1999/xlink" width="400" height="300" viewBox="0, 0, 400,300"><g id="svgg"><path id="path0" d="M196.250 80.798 L 187.000 86.470 186.994 96.485 L 186.989 106.500 178.960 111.291 L 170.931 116.082 162.181 111.378 L 153.431 106.674 142.465 113.134 L 131.500 119.595 131.500 150.856 L 131.500 182.117 142.518 188.006 L 153.537 193.895 162.183 188.556 L 170.829 183.218 178.907 187.359 L 186.986 191.500 186.993 201.673 L 187.000 211.846 196.618 216.909 C 201.907 219.694,206.520 221.828,206.868 221.652 C 207.215 221.475,220.213 213.761,235.750 204.510 L 264.000 187.689 264.000 176.508 L 264.000 165.328 254.000 160.098 L 244.000 154.869 244.000 147.153 L 244.000 139.438 253.029 134.093 L 262.058 128.747 261.779 116.324 L 261.500 103.901 234.253 89.450 C 219.268 81.503,206.668 75.028,206.253 75.063 C 205.839 75.097,201.338 77.678,196.250 80.798 M230.406 92.124 C 243.108 98.792,253.861 104.575,254.302 104.976 C 255.122 105.721,243.745 113.000,241.761 113.000 C 241.158 113.000,236.980 111.008,232.477 108.573 L 224.290 104.147 196.669 120.695 L 169.049 137.243 162.602 133.901 C 154.647 129.776,152.219 132.154,183.449 113.484 C 198.052 104.753,210.000 97.338,210.000 97.005 C 210.000 96.673,206.400 94.645,202.000 92.500 C 192.456 87.847,192.515 88.079,199.750 83.607 C 207.081 79.077,203.836 78.175,230.406 92.124 M197.127 94.565 L 202.188 97.129 197.844 99.867 C 195.455 101.373,192.938 102.946,192.250 103.362 C 191.304 103.934,191.000 102.643,191.000 98.059 C 191.000 91.042,190.612 91.263,197.127 94.565 M237.000 116.037 C 237.000 116.371,233.625 118.634,229.500 121.066 L 222.000 125.488 222.000 156.671 L 222.000 187.855 216.119 191.428 C 208.557 196.022,209.003 196.314,208.982 186.750 L 208.964 178.500 191.732 169.356 C 182.254 164.326,169.662 157.649,163.750 154.517 L 153.000 148.823 153.000 141.412 C 153.000 137.335,153.227 134.000,153.504 134.000 C 153.781 134.000,157.386 135.832,161.515 138.072 L 169.022 142.144 196.636 125.643 L 224.250 109.142 230.625 112.286 C 234.131 114.015,237.000 115.703,237.000 116.037 M258.000 117.512 L 258.000 126.025 252.497 129.545 C 243.619 135.224,244.000 135.395,244.000 125.733 L 244.000 117.252 250.750 113.132 C 254.463 110.866,257.613 109.009,257.750 109.006 C 257.887 109.003,258.000 112.831,258.000 117.512 M160.152 115.077 C 167.000 118.534,167.038 118.382,157.980 123.859 L 151.504 127.775 144.604 124.301 L 137.704 120.826 145.102 116.424 C 153.926 111.174,152.647 111.288,160.152 115.077 M249.398 176.369 C 260.372 169.748,259.579 169.606,259.536 178.187 L 259.500 185.374 235.000 200.149 C 206.143 217.551,209.000 216.722,209.000 207.691 L 209.000 200.383 217.500 195.471 L 226.000 190.559 226.000 159.335 L 226.000 128.111 232.750 124.068 L 239.500 120.024 240.000 150.881 L 240.500 181.737 249.398 176.369 M143.059 128.250 L 148.976 131.500 148.988 141.507 L 149.000 151.514 176.490 166.007 L 203.980 180.500 203.990 188.285 L 204.000 196.070 194.750 191.090 C 189.662 188.352,177.850 182.046,168.500 177.079 L 151.500 168.047 151.217 177.876 L 150.933 187.705 143.467 183.792 L 136.000 179.879 136.000 152.440 C 136.000 137.348,136.257 125.000,136.571 125.000 C 136.885 125.000,139.804 126.463,143.059 128.250 M196.135 140.953 C 189.884 144.736,184.397 148.206,183.942 148.665 C 183.487 149.124,188.939 152.565,196.057 156.310 L 209.000 163.120 209.000 148.560 C 209.000 140.552,208.662 134.017,208.250 134.038 C 207.838 134.059,202.386 137.171,196.135 140.953 M204.000 148.373 L 204.000 155.745 198.008 152.623 C 194.713 150.905,192.017 149.275,192.017 149.000 C 192.018 148.615,202.569 141.500,203.750 141.087 C 203.887 141.039,204.000 144.318,204.000 148.373 M251.334 163.407 L 257.167 166.753 251.203 170.377 C 243.598 174.997,244.000 175.185,244.000 167.000 C 244.000 158.910,243.727 159.043,251.334 163.407 M161.250 177.972 C 167.092 180.956,167.094 180.885,161.102 184.250 C 154.744 187.821,155.000 187.960,155.000 180.917 C 155.000 177.571,155.338 174.994,155.750 175.190 C 156.162 175.386,158.637 176.638,161.250 177.972 M203.794 208.366 L 204.088 216.232 197.794 212.700 L 191.500 209.169 191.207 201.506 L 190.913 193.844 197.207 197.172 L 203.500 200.500 203.794 208.366 " stroke="white" fill="none" fill-rule="evenodd"></path></g></svg>