<svg width="35" height="31" viewBox="0 0 35 31" fill="none" xmlns="http://www.w3.org/2000/svg">
<path fill-rule="evenodd" clip-rule="evenodd" d="M10.8375 3.60186C14.9415 3.02075 19.891 3.02075 23.995 3.60186C27.7238 4.13072 30.6134 6.74651 31.1644 9.56498C31.8341 12.9772 31.8341 17.1068 31.1644 20.519C30.6118 23.3375 27.7238 25.9533 23.995 26.4821C19.891 27.0632 14.9399 27.0632 10.8375 26.4821C7.10877 25.9533 4.22077 23.3375 3.66819 20.519C2.99844 17.1068 2.99844 12.9772 3.66819 9.56498C4.22077 6.74651 7.10877 4.13072 10.8375 3.60186ZM24.4384 0.46671C20.0414 -0.15557 14.7911 -0.15557 10.3942 0.46671C5.62044 1.14283 1.4246 4.54874 0.561687 8.95695C-0.187229 12.7714 -0.187229 17.3126 0.561687 21.127C1.4246 25.5353 5.62044 28.9412 10.3942 29.6173C14.7911 30.2396 20.0414 30.2396 24.4384 29.6173C29.2121 28.9412 33.4079 25.5353 34.2709 21.127C35.0198 17.3126 35.0198 12.7714 34.2709 8.95695C33.4079 4.54874 29.2121 1.14283 24.4384 0.46671ZM15.1284 7.39096C14.8899 7.23186 14.6127 7.14048 14.3264 7.12658C14.0401 7.11267 13.7554 7.17675 13.5026 7.31199C13.2499 7.44723 13.0386 7.64855 12.8913 7.89447C12.744 8.14039 12.6662 8.42169 12.6663 8.70836V21.3756C12.6662 21.6623 12.744 21.9436 12.8913 22.1895C13.0386 22.4354 13.2499 22.6368 13.5026 22.772C13.7554 22.9072 14.0401 22.9713 14.3264 22.9574C14.6127 22.9435 14.8899 22.8521 15.1284 22.693L24.6284 16.3594C24.8452 16.2148 25.023 16.0189 25.146 15.7891C25.269 15.5593 25.3333 15.3026 25.3333 15.042C25.3333 14.7813 25.269 14.5247 25.146 14.2949C25.023 14.0651 24.8452 13.8692 24.6284 13.7246L15.1284 7.39096ZM20.8949 15.042L15.8329 18.4178V11.6678L20.8949 15.042Z" fill="#2f81b7"/>
</svg>
