<svg width="0" height="0" class="hidden">
  <symbol fill="none" xmlns="http://www.w3.org/2000/svg" viewBox="0 0 53 55" id="arrow_nav">
    <path d="M26.3544 1.00023L2.2862 1.00023L26.1538 26.8201L26.7814 27.4989L26.1538 28.1777L2.28633 53.9951L26.3544 53.9951L50.7276 27.4989L26.3544 1.00023Z" stroke="black" stroke-width="2"></path>
  </symbol>
  <symbol fill="none" xmlns="http://www.w3.org/2000/svg" viewBox="0 0 16 24" id="back_to_top_arrow">
    <path d="M8.70711 0.292892C8.31658 -0.0976314 7.68342 -0.0976315 7.29289 0.292892L0.928933 6.65685C0.538409 7.04738 0.538409 7.68054 0.928933 8.07107C1.31946 8.46159 1.95262 8.46159 2.34315 8.07107L8 2.41421L13.6569 8.07107C14.0474 8.46159 14.6805 8.46159 15.0711 8.07107C15.4616 7.68054 15.4616 7.04738 15.0711 6.65685L8.70711 0.292892ZM9 24L9 1L7 1L7 24L9 24Z" fill="white"></path>
  </symbol>
  <symbol fill="#996633" xmlns="http://www.w3.org/2000/svg" viewBox="0 0 404 104" id="block_1">
    <rect x="2" y="2" width="100" height="100" stroke="black" stroke-width="4"></rect>
    <path d="M102 2H202V102H102" stroke="black" stroke-width="4"></path>
    <path d="M302 2H402V102H302" stroke="black" stroke-width="4"></path>
    <path d="M202 2H302V102H202" stroke="black" stroke-width="4"></path>
  </symbol>
  <symbol fill="#e64c43" xmlns="http://www.w3.org/2000/svg" viewBox="0 0 304 204" id="block_2">
    <rect x="2" y="2" width="100" height="100" stroke="black" stroke-width="4"></rect>
    <path d="M102 2H202V102H102" stroke="black" stroke-width="4"></path>
    <path d="M202 2H302V102H202" stroke="black" stroke-width="4"></path>
    <path d="M202 102V152V202H102V102" stroke="black" stroke-width="4"></path>
  </symbol>
  <symbol fill="#f1c331" xmlns="http://www.w3.org/2000/svg" viewBox="0 0 304 204" id="block_3">
    <rect x="2" y="2" width="100" height="100" stroke="black" stroke-width="4"></rect>
    <path d="M102 2H202V102H102" stroke="black" stroke-width="4"></path>
    <path d="M202 2H302V102H202" stroke="black" stroke-width="4"></path>
    <path d="M302 102V152V202H202V152V102" stroke="black" stroke-width="4"></path>
  </symbol>
  <symbol fill="#2f81b7" xmlns="http://www.w3.org/2000/svg" viewBox="0 0 304 204" id="block_4">
    <rect x="2" y="2" width="100" height="100" stroke="black" stroke-width="4"></rect>
    <path d="M102 2H202V102H102" stroke="black" stroke-width="4"></path>
    <path d="M202 2H302V102H202" stroke="black" stroke-width="4"></path>
    <path d="M102 102V152V202H2V152V102" stroke="black" stroke-width="4"></path>
  </symbol>
  <symbol fill="#2dae62" xmlns="http://www.w3.org/2000/svg" viewBox="0 0 304 204" id="block_5">
    <rect x="2" y="2" width="100" height="100" stroke="black" stroke-width="4"></rect>
    <path d="M202 102H302V202H202" stroke="black" stroke-width="4"></path>
    <path d="M102 2H202V102H102" stroke="black" stroke-width="4"></path>
    <path d="M202 102V152V202H102V102" stroke="black" stroke-width="4"></path>
  </symbol>
  <symbol fill="#e77d31" xmlns="http://www.w3.org/2000/svg" viewBox="0 0 204 204" id="block_6">
    <rect x="2" y="2" width="100" height="100" stroke="black" stroke-width="4"></rect>
    <rect x="102" y="2" width="100" height="100" stroke="black" stroke-width="4"></rect>
    <rect x="102" y="102" width="100" height="100" stroke="black" stroke-width="4"></rect>
    <rect x="2" y="102" width="100" height="100" stroke="black" stroke-width="4"></rect>
  </symbol>
  <symbol fill="#8c47ad" xmlns="http://www.w3.org/2000/svg" viewBox="0 0 304 204" id="block_7">
    <rect x="2" y="102" width="100" height="100" stroke="black" stroke-width="4"></rect>
    <path d="M202 2H302V102H202" stroke="black" stroke-width="4"></path>
    <path d="M102 2H202V102H102" stroke="black" stroke-width="4"></path>
    <path d="M202 102V152V202H102V102" stroke="black" stroke-width="4"></path>
    <path d="M102.5 2V102" stroke="black" stroke-width="4"></path>
  </symbol>
  <symbol fill="none" xmlns="http://www.w3.org/2000/svg" viewBox="0 0 34 34" id="fb">
    <path d="M31.5849 16.7925C31.5849 24.9621 24.9621 31.5849 16.7925 31.5849C8.62279 31.5849 2 24.9621 2 16.7925C2 8.62279 8.62279 2 16.7925 2C24.9621 2 31.5849 8.62279 31.5849 16.7925Z" stroke="#2dae62" stroke-width="3"></path>
    <path d="M20.5872 17.3841H17.8937V27.2516H13.8128V17.3841H11.8723V13.9166H13.8128V11.6724C13.8128 10.0676 14.5748 7.55469 17.93 7.55469L20.9525 7.56737V10.9334H18.759C18.3991 10.9334 17.8931 11.1133 17.8931 11.8789V13.9197H20.9428L20.5872 17.3841Z" fill="#2dae62"></path>
  </symbol>
  <symbol fill="none" xmlns="http://www.w3.org/2000/svg" viewBox="0 0 31 31" id="ig">
    <path d="M30.9152 9.11408C30.8426 7.46693 30.5762 6.33453 30.1946 5.35329C29.801 4.31173 29.1954 3.37922 28.402 2.60402C27.6268 1.81676 26.6882 1.20502 25.6587 0.817542C24.6717 0.435975 23.5453 0.169612 21.8981 0.0969885C20.2387 0.0182149 19.7118 0 15.503 0C11.2942 0 10.7674 0.0182149 9.11408 0.090838C7.46693 0.163461 6.33453 0.430061 5.35353 0.811392C4.31173 1.20502 3.37922 1.81061 2.60402 2.60402C1.81676 3.37922 1.20526 4.31788 0.817542 5.34738C0.435975 6.33453 0.169612 7.46078 0.0969884 9.10793C0.0182149 10.7674 0 11.2942 0 15.503C0 19.7119 0.0182149 20.2387 0.090838 21.892C0.163461 23.5391 0.430061 24.6715 0.811628 25.6528C1.20526 26.6943 1.81676 27.6268 2.60402 28.402C3.37922 29.1893 4.31788 29.801 5.34738 30.1885C6.33453 30.5701 7.46078 30.8364 9.10816 30.9091C10.7612 30.9819 11.2883 30.9999 15.4971 30.9999C19.7059 30.9999 20.2327 30.9819 21.886 30.9091C23.5332 30.8364 24.6656 30.5701 25.6466 30.1885C27.73 29.383 29.3771 27.7359 30.1826 25.6528C30.5639 24.6656 30.8305 23.5391 30.9031 21.892C30.9758 20.2387 30.994 19.7119 30.994 15.503C30.994 11.2942 30.9878 10.7674 30.9152 9.11408ZM28.1236 21.7709C28.0569 23.2848 27.8026 24.1024 27.5906 24.6474C27.0697 25.9979 25.9979 27.0697 24.6474 27.5906C24.1023 27.8026 23.2789 28.0569 21.7708 28.1234C20.1358 28.1962 19.6454 28.2142 15.5092 28.2142C11.373 28.2142 10.8764 28.1962 9.24726 28.1234C7.73329 28.0569 6.91575 27.8026 6.37072 27.5906C5.69866 27.3423 5.08693 26.9486 4.59039 26.4339C4.07564 25.9312 3.68201 25.3256 3.43363 24.6535C3.22167 24.1085 2.96737 23.2848 2.9009 21.777C2.82804 20.1419 2.81006 19.6513 2.81006 15.5151C2.81006 11.3789 2.82804 10.8824 2.9009 9.25342C2.96737 7.73945 3.22167 6.92191 3.43363 6.37688C3.68201 5.70458 4.07564 5.09308 4.59654 4.59631C5.09899 4.08156 5.70458 3.68793 6.37687 3.43978C6.9219 3.22783 7.74559 2.97353 9.25341 2.90682C10.8885 2.83419 11.3791 2.81598 15.5151 2.81598C19.6574 2.81598 20.1478 2.83419 21.777 2.90682C23.291 2.97353 24.1085 3.22783 24.6535 3.43978C25.3256 3.68793 25.9373 4.08156 26.4339 4.59631C26.9486 5.099 27.3422 5.70458 27.5906 6.37688C27.8026 6.92191 28.0569 7.74536 28.1236 9.25342C28.1962 10.8885 28.2144 11.3789 28.2144 15.5151C28.2144 19.6513 28.1962 20.1358 28.1236 21.7709Z" fill="#8c47ad"></path>
    <path d="M15.502 7.53906C11.1056 7.53906 7.53857 11.1059 7.53857 15.5025C7.53857 19.8992 11.1056 23.466 15.502 23.466C19.8987 23.466 23.4655 19.8992 23.4655 15.5025C23.4655 11.1059 19.8987 7.53906 15.502 7.53906ZM15.502 20.6682C12.6499 20.6682 10.3363 18.3549 10.3363 15.5025C10.3363 12.6501 12.6499 10.3368 15.502 10.3368C18.3545 10.3368 20.6677 12.6501 20.6677 15.5025C20.6677 18.3549 18.3545 20.6682 15.502 20.6682Z" fill="#8c47ad"></path>
    <path d="M25.6397 7.22434C25.6397 8.251 24.8073 9.08345 23.7804 9.08345C22.7537 9.08345 21.9213 8.251 21.9213 7.22434C21.9213 6.19745 22.7537 5.36523 23.7804 5.36523C24.8073 5.36523 25.6397 6.19745 25.6397 7.22434Z" fill="#8c47ad"></path>
  </symbol>
  <symbol fill="none" xmlns="http://www.w3.org/2000/svg" viewBox="0 0 60 40" id="menu_hamburger">
    <line x1="2" y1="1.5" x2="58.5" y2="1.5" stroke="#333333" stroke-width="4" stroke-linecap="round"></line>
    <line x1="2" y1="28" x2="58.5" y2="28" stroke="#333333" stroke-width="4" stroke-linecap="round"></line>
    <line x1="2" y1="15" x2="58.5" y2="14.5" stroke="#333333" stroke-width="4" stroke-linecap="round"></line>
  </symbol>
  <symbol xmlns="http://www.w3.org/2000/svg" xmlns:xlink="http://www.w3.org/1999/xlink" version="1.1" viewBox="-1 -1 11 11" id="menu_x">
    <path fill="#5f6368" stroke="#5f6368" stroke-linecap="round" stroke-width="1.5" d="m0 0 9,9 M0 9 9,0"></path>
  </symbol>
  <symbol id="tetris-logo" version="1.1" xmlns="http://www.w3.org/2000/svg" xmlns:xlink="http://www.w3.org/1999/xlink" viewBox="0, 0, 400,300">
    <g id="svgg">
      <path id="path0" d="M196.250 80.798 L 187.000 86.470 186.994 96.485 L 186.989 106.500 178.960 111.291 L 170.931 116.082 162.181 111.378 L 153.431 106.674 142.465 113.134 L 131.500 119.595 131.500 150.856 L 131.500 182.117 142.518 188.006 L 153.537 193.895 162.183 188.556 L 170.829 183.218 178.907 187.359 L 186.986 191.500 186.993 201.673 L 187.000 211.846 196.618 216.909 C 201.907 219.694,206.520 221.828,206.868 221.652 C 207.215 221.475,220.213 213.761,235.750 204.510 L 264.000 187.689 264.000 176.508 L 264.000 165.328 254.000 160.098 L 244.000 154.869 244.000 147.153 L 244.000 139.438 253.029 134.093 L 262.058 128.747 261.779 116.324 L 261.500 103.901 234.253 89.450 C 219.268 81.503,206.668 75.028,206.253 75.063 C 205.839 75.097,201.338 77.678,196.250 80.798 M230.406 92.124 C 243.108 98.792,253.861 104.575,254.302 104.976 C 255.122 105.721,243.745 113.000,241.761 113.000 C 241.158 113.000,236.980 111.008,232.477 108.573 L 224.290 104.147 196.669 120.695 L 169.049 137.243 162.602 133.901 C 154.647 129.776,152.219 132.154,183.449 113.484 C 198.052 104.753,210.000 97.338,210.000 97.005 C 210.000 96.673,206.400 94.645,202.000 92.500 C 192.456 87.847,192.515 88.079,199.750 83.607 C 207.081 79.077,203.836 78.175,230.406 92.124 M197.127 94.565 L 202.188 97.129 197.844 99.867 C 195.455 101.373,192.938 102.946,192.250 103.362 C 191.304 103.934,191.000 102.643,191.000 98.059 C 191.000 91.042,190.612 91.263,197.127 94.565 M237.000 116.037 C 237.000 116.371,233.625 118.634,229.500 121.066 L 222.000 125.488 222.000 156.671 L 222.000 187.855 216.119 191.428 C 208.557 196.022,209.003 196.314,208.982 186.750 L 208.964 178.500 191.732 169.356 C 182.254 164.326,169.662 157.649,163.750 154.517 L 153.000 148.823 153.000 141.412 C 153.000 137.335,153.227 134.000,153.504 134.000 C 153.781 134.000,157.386 135.832,161.515 138.072 L 169.022 142.144 196.636 125.643 L 224.250 109.142 230.625 112.286 C 234.131 114.015,237.000 115.703,237.000 116.037 M258.000 117.512 L 258.000 126.025 252.497 129.545 C 243.619 135.224,244.000 135.395,244.000 125.733 L 244.000 117.252 250.750 113.132 C 254.463 110.866,257.613 109.009,257.750 109.006 C 257.887 109.003,258.000 112.831,258.000 117.512 M160.152 115.077 C 167.000 118.534,167.038 118.382,157.980 123.859 L 151.504 127.775 144.604 124.301 L 137.704 120.826 145.102 116.424 C 153.926 111.174,152.647 111.288,160.152 115.077 M249.398 176.369 C 260.372 169.748,259.579 169.606,259.536 178.187 L 259.500 185.374 235.000 200.149 C 206.143 217.551,209.000 216.722,209.000 207.691 L 209.000 200.383 217.500 195.471 L 226.000 190.559 226.000 159.335 L 226.000 128.111 232.750 124.068 L 239.500 120.024 240.000 150.881 L 240.500 181.737 249.398 176.369 M143.059 128.250 L 148.976 131.500 148.988 141.507 L 149.000 151.514 176.490 166.007 L 203.980 180.500 203.990 188.285 L 204.000 196.070 194.750 191.090 C 189.662 188.352,177.850 182.046,168.500 177.079 L 151.500 168.047 151.217 177.876 L 150.933 187.705 143.467 183.792 L 136.000 179.879 136.000 152.440 C 136.000 137.348,136.257 125.000,136.571 125.000 C 136.885 125.000,139.804 126.463,143.059 128.250 M196.135 140.953 C 189.884 144.736,184.397 148.206,183.942 148.665 C 183.487 149.124,188.939 152.565,196.057 156.310 L 209.000 163.120 209.000 148.560 C 209.000 140.552,208.662 134.017,208.250 134.038 C 207.838 134.059,202.386 137.171,196.135 140.953 M204.000 148.373 L 204.000 155.745 198.008 152.623 C 194.713 150.905,192.017 149.275,192.017 149.000 C 192.018 148.615,202.569 141.500,203.750 141.087 C 203.887 141.039,204.000 144.318,204.000 148.373 M251.334 163.407 L 257.167 166.753 251.203 170.377 C 243.598 174.997,244.000 175.185,244.000 167.000 C 244.000 158.910,243.727 159.043,251.334 163.407 M161.250 177.972 C 167.092 180.956,167.094 180.885,161.102 184.250 C 154.744 187.821,155.000 187.960,155.000 180.917 C 155.000 177.571,155.338 174.994,155.750 175.190 C 156.162 175.386,158.637 176.638,161.250 177.972 M203.794 208.366 L 204.088 216.232 197.794 212.700 L 191.500 209.169 191.207 201.506 L 190.913 193.844 197.207 197.172 L 203.500 200.500 203.794 208.366 " stroke="white" fill="none" fill-rule="evenodd"></path>
    </g>
  </symbol>
  <symbol fill="none" xmlns="http://www.w3.org/2000/svg" viewBox="0 0 35 31" id="yt">
    <path fill-rule="evenodd" clip-rule="evenodd" d="M10.8375 3.60186C14.9415 3.02075 19.891 3.02075 23.995 3.60186C27.7238 4.13072 30.6134 6.74651 31.1644 9.56498C31.8341 12.9772 31.8341 17.1068 31.1644 20.519C30.6118 23.3375 27.7238 25.9533 23.995 26.4821C19.891 27.0632 14.9399 27.0632 10.8375 26.4821C7.10877 25.9533 4.22077 23.3375 3.66819 20.519C2.99844 17.1068 2.99844 12.9772 3.66819 9.56498C4.22077 6.74651 7.10877 4.13072 10.8375 3.60186ZM24.4384 0.46671C20.0414 -0.15557 14.7911 -0.15557 10.3942 0.46671C5.62044 1.14283 1.4246 4.54874 0.561687 8.95695C-0.187229 12.7714 -0.187229 17.3126 0.561687 21.127C1.4246 25.5353 5.62044 28.9412 10.3942 29.6173C14.7911 30.2396 20.0414 30.2396 24.4384 29.6173C29.2121 28.9412 33.4079 25.5353 34.2709 21.127C35.0198 17.3126 35.0198 12.7714 34.2709 8.95695C33.4079 4.54874 29.2121 1.14283 24.4384 0.46671ZM15.1284 7.39096C14.8899 7.23186 14.6127 7.14048 14.3264 7.12658C14.0401 7.11267 13.7554 7.17675 13.5026 7.31199C13.2499 7.44723 13.0386 7.64855 12.8913 7.89447C12.744 8.14039 12.6662 8.42169 12.6663 8.70836V21.3756C12.6662 21.6623 12.744 21.9436 12.8913 22.1895C13.0386 22.4354 13.2499 22.6368 13.5026 22.772C13.7554 22.9072 14.0401 22.9713 14.3264 22.9574C14.6127 22.9435 14.8899 22.8521 15.1284 22.693L24.6284 16.3594C24.8452 16.2148 25.023 16.0189 25.146 15.7891C25.269 15.5593 25.3333 15.3026 25.3333 15.042C25.3333 14.7813 25.269 14.5247 25.146 14.2949C25.023 14.0651 24.8452 13.8692 24.6284 13.7246L15.1284 7.39096ZM20.8949 15.042L15.8329 18.4178V11.6678L20.8949 15.042Z" fill="#2f81b7"></path>
  </symbol>
</svg>